<svg width="48" height="48" viewBox="0 0 48 48" fill="none" xmlns="http://www.w3.org/2000/svg">
<path d="M23.9982 28.7602C26.6272 28.7602 28.7584 26.6292 28.7584 24.0002C28.7584 21.3714 26.6272 19.2402 23.9982 19.2402C21.3694 19.2402 19.2383 21.3714 19.2383 24.0002C19.2383 26.6292 21.3694 28.7602 23.9982 28.7602Z" fill="white"/>
<path d="M40.0006 37.5C39.6806 37.5 39.3806 37.4 39.1006 37.2C38.4406 36.7 38.3006 35.76 38.8006 35.1C41.2206 31.88 42.5006 28.04 42.5006 24C42.5006 19.9601 41.2206 16.1201 38.8006 12.9001C38.3006 12.2401 38.4406 11.3 39.1006 10.8C39.7606 10.3 40.7006 10.44 41.2006 11.1C44.0206 14.84 45.5006 19.3001 45.5006 24C45.5006 28.7 44.0206 33.16 41.2006 36.9C40.9006 37.3 40.4606 37.5 40.0006 37.5Z" fill="white" fill-opacity="0.75"/>
<path d="M8 37.5C7.54 37.5 7.09998 37.3 6.79998 36.9C3.97998 33.16 2.5 28.7 2.5 24C2.5 19.3001 3.97998 14.84 6.79998 11.1C7.29998 10.44 8.24002 10.3 8.90002 10.8C9.56002 11.3 9.70002 12.2401 9.20002 12.9001C6.78002 16.1201 5.5 19.9601 5.5 24C5.5 28.04 6.78002 31.88 9.20002 35.1C9.70002 35.76 9.56002 36.7 8.90002 37.2C8.64002 37.4 8.32 37.5 8 37.5Z" fill="white" fill-opacity="0.75"/>
<path d="M33.5982 32.6998C33.2782 32.6998 32.9782 32.5998 32.6982 32.3998C32.0382 31.8998 31.8982 30.9598 32.3982 30.2998C33.7782 28.4798 34.4982 26.2998 34.4982 23.9998C34.4982 21.6998 33.7782 19.5199 32.3982 17.6999C31.8982 17.0399 32.0382 16.0998 32.6982 15.5998C33.3582 15.0998 34.2982 15.2399 34.7982 15.8999C36.5582 18.2599 37.4982 21.0598 37.4982 23.9998C37.4982 26.9398 36.5582 29.7598 34.7982 32.0998C34.4982 32.4998 34.0582 32.6998 33.5982 32.6998Z" fill="white" fill-opacity="0.75"/>
<path d="M14.4 32.6998C13.94 32.6998 13.5 32.4998 13.2 32.0998C11.44 29.7398 10.5 26.9398 10.5 23.9998C10.5 21.0598 11.44 18.2399 13.2 15.8999C13.7 15.2399 14.64 15.0998 15.3 15.5998C15.96 16.0998 16.1 17.0399 15.6 17.6999C14.22 19.5199 13.5 21.6998 13.5 23.9998C13.5 26.2998 14.22 28.4798 15.6 30.2998C16.1 30.9598 15.96 31.8998 15.3 32.3998C15.04 32.5998 14.72 32.6998 14.4 32.6998Z" fill="white" fill-opacity="0.75"/>
</svg>
